<svg width="119" height="24" viewBox="0 0 119 24" fill="none" xmlns="http://www.w3.org/2000/svg">
<g clip-path="url(#clip0_1_6)">
<path fill-rule="evenodd" clip-rule="evenodd" d="M8 18.7699C6.56217 18.7699 5.1566 18.3435 3.96107 17.5447C2.76556 16.7459 1.83376 15.6105 1.28352 14.2821C0.733283 12.9537 0.589313 11.4919 0.869823 10.0817C1.15033 8.6715 1.84272 7.37613 2.85943 6.35943C3.87613 5.34272 5.1715 4.65034 6.58173 4.36983C7.99193 4.08932 9.45367 4.23329 10.7821 4.78352C12.1105 5.33376 13.2459 6.26556 14.0447 7.4611C14.8435 8.6566 15.2699 10.0622 15.2699 11.5H8V18.7699Z" fill="#0D141C"/>
</g>
<path d="M39.308 19.43C38.36 19.43 37.484 19.274 36.68 18.962C35.888 18.638 35.198 18.188 34.61 17.612C34.022 17.024 33.566 16.334 33.242 15.542C32.93 14.738 32.774 13.856 32.774 12.896C32.774 11.96 32.942 11.096 33.278 10.304C33.614 9.512 34.076 8.828 34.664 8.252C35.264 7.664 35.966 7.208 36.77 6.884C37.586 6.56 38.474 6.398 39.434 6.398C40.034 6.398 40.622 6.476 41.198 6.632C41.774 6.788 42.308 7.022 42.8 7.334C43.304 7.634 43.736 7.994 44.096 8.414L42.224 10.556C41.972 10.292 41.702 10.064 41.414 9.872C41.138 9.668 40.832 9.512 40.496 9.404C40.16 9.296 39.8 9.242 39.416 9.242C38.936 9.242 38.48 9.332 38.048 9.512C37.628 9.68 37.256 9.926 36.932 10.25C36.62 10.562 36.374 10.946 36.194 11.402C36.014 11.858 35.924 12.368 35.924 12.932C35.924 13.484 36.014 13.988 36.194 14.444C36.374 14.888 36.626 15.272 36.95 15.596C37.274 15.92 37.664 16.166 38.12 16.334C38.588 16.502 39.104 16.586 39.668 16.586C40.052 16.586 40.418 16.532 40.766 16.424C41.114 16.316 41.432 16.172 41.72 15.992C42.02 15.8 42.284 15.584 42.512 15.344L43.988 17.684C43.688 18.02 43.286 18.32 42.782 18.584C42.29 18.848 41.738 19.058 41.126 19.214C40.526 19.358 39.92 19.43 39.308 19.43ZM50.0664 19.43C49.0104 19.43 48.0924 19.22 47.3124 18.8C46.5324 18.368 45.9264 17.786 45.4944 17.054C45.0624 16.31 44.8464 15.464 44.8464 14.516C44.8464 13.784 44.9664 13.112 45.2064 12.5C45.4464 11.888 45.7824 11.36 46.2144 10.916C46.6464 10.46 47.1564 10.112 47.7444 9.872C48.3444 9.62 48.9984 9.494 49.7064 9.494C50.3784 9.494 50.9904 9.614 51.5424 9.854C52.1064 10.094 52.5924 10.43 53.0004 10.862C53.4084 11.294 53.7204 11.804 53.9364 12.392C54.1524 12.98 54.2484 13.622 54.2244 14.318L54.2064 15.092H46.5924L46.1784 13.472H51.8664L51.5604 13.814V13.454C51.5364 13.154 51.4404 12.89 51.2724 12.662C51.1164 12.422 50.9064 12.236 50.6424 12.104C50.3784 11.972 50.0784 11.906 49.7424 11.906C49.2744 11.906 48.8724 12.002 48.5364 12.194C48.2124 12.374 47.9664 12.644 47.7984 13.004C47.6304 13.352 47.5464 13.784 47.5464 14.3C47.5464 14.828 47.6544 15.29 47.8704 15.686C48.0984 16.07 48.4224 16.37 48.8424 16.586C49.2744 16.802 49.7844 16.91 50.3724 16.91C50.7804 16.91 51.1404 16.85 51.4524 16.73C51.7764 16.61 52.1244 16.406 52.4964 16.118L53.8464 18.026C53.4744 18.35 53.0784 18.614 52.6584 18.818C52.2384 19.022 51.8064 19.172 51.3624 19.268C50.9304 19.376 50.4984 19.43 50.0664 19.43ZM55.7936 19.25V9.692H58.5296L58.6556 12.806L58.1156 12.212C58.2596 11.696 58.4936 11.234 58.8176 10.826C59.1536 10.418 59.5436 10.094 59.9876 9.854C60.4316 9.614 60.9056 9.494 61.4096 9.494C61.6256 9.494 61.8236 9.512 62.0036 9.548C62.1956 9.584 62.3696 9.626 62.5256 9.674L61.7336 12.86C61.6016 12.776 61.4216 12.71 61.1936 12.662C60.9776 12.602 60.7496 12.572 60.5096 12.572C60.2456 12.572 59.9996 12.62 59.7716 12.716C59.5436 12.8 59.3516 12.926 59.1956 13.094C59.0396 13.262 58.9136 13.46 58.8176 13.688C58.7336 13.916 58.6916 14.174 58.6916 14.462V19.25H55.7936ZM64.8669 19.25V7.28H67.7469V19.25H64.8669ZM63.1749 12.212V9.692H69.6009V12.212H63.1749ZM71.1431 19.25V9.692H74.0231V19.25H71.1431ZM72.5831 7.802C72.0431 7.802 71.6171 7.676 71.3051 7.424C71.0051 7.16 70.8551 6.788 70.8551 6.308C70.8551 5.876 71.0111 5.522 71.3231 5.246C71.6351 4.97 72.0551 4.832 72.5831 4.832C73.1231 4.832 73.5431 4.964 73.8431 5.228C74.1431 5.48 74.2931 5.84 74.2931 6.308C74.2931 6.752 74.1371 7.112 73.8251 7.388C73.5251 7.664 73.1111 7.802 72.5831 7.802ZM77.0595 19.25V9.224C77.0595 8.6 77.1915 8.036 77.4555 7.532C77.7315 7.028 78.1095 6.632 78.5895 6.344C79.0815 6.044 79.6515 5.894 80.2995 5.894C80.7555 5.894 81.1755 5.96 81.5595 6.092C81.9435 6.224 82.2855 6.41 82.5855 6.65L81.7575 8.756C81.6015 8.672 81.4515 8.606 81.3075 8.558C81.1635 8.51 81.0315 8.486 80.9115 8.486C80.6955 8.486 80.5155 8.522 80.3715 8.594C80.2275 8.666 80.1195 8.78 80.0475 8.936C79.9875 9.08 79.9575 9.26 79.9575 9.476V19.25H78.5175C78.1935 19.25 77.9055 19.25 77.6535 19.25C77.4135 19.25 77.2155 19.25 77.0595 19.25ZM75.6735 12.338V9.962H81.9195V12.338H75.6735ZM84.484 23.39L86.662 18.26L86.698 19.736L82.09 9.692H85.348L87.364 14.498C87.472 14.738 87.574 14.996 87.67 15.272C87.766 15.548 87.838 15.812 87.886 16.064L87.49 16.298C87.562 16.118 87.64 15.896 87.724 15.632C87.82 15.356 87.922 15.062 88.03 14.75L89.794 9.692H93.07L89.002 19.25L87.346 23.39H84.484Z" fill="#0D141C"/>
<defs>
<clipPath id="clip0_1_6">
<rect width="16" height="16" fill="white" transform="translate(0 3.5)"/>
</clipPath>
</defs>
</svg>
